<mxfile host="app.diagrams.net" modified="2024-02-28T19:31:46.397Z" agent="Mozilla/5.0 (X11; Linux x86_64; rv:123.0) Gecko/20100101 Firefox/123.0" version="23.1.8" etag="jNoltCjVH-iLtiV4APHk" type="github">
  <diagram name="Page-1" id="ncfa9EBGS3ICDLuDf_0e">
    <mxGraphModel>
      <root>
        <mxCell id="0" />
        <mxCell id="1" parent="0" />
      </root>
    </mxGraphModel>
  </diagram>
</mxfile>
